<?xml version="1.0" encoding="iso-8859-1"?>
<!-- Generator: Adobe Illustrator 19.0.0, SVG Export Plug-In . SVG Version: 6.00 Build 0)  -->
<svg version="1.1" id="Layer_1" xmlns="http://www.w3.org/2000/svg" xmlns:xlink="http://www.w3.org/1999/xlink" x="0px" y="0px"
	 viewBox="0 0 464 464" style="enable-background:new 0 0 464 464;" xml:space="preserve">
<g>
	<g>
		<g>
			<path d="M376,112H88c-8.848,0-16,7.152-16,16v272c0,35.296,28.704,64,64,64h192c35.296,0,64-28.704,64-64V128
				C392,119.152,384.848,112,376,112z M360,400c0,17.648-14.352,32-32,32H136c-17.648,0-32-14.352-32-32V144h256V400z"/>
			<path d="M408,64H280V43.008C280,19.296,260.704,0,237.008,0h-10C203.296,0,184,19.296,184,43.008V64H56c-8.848,0-16,7.152-16,16
				s7.152,16,16,16h352c8.848,0,16-7.152,16-16S416.848,64,408,64z M248,64h-32V43.008C216,37.024,221.024,32,227.008,32h10
				C242.976,32,248,37.024,248,43.008V64z"/>
			<path d="M192,384c4.416,0,8-3.584,8-8V200c0-4.416-3.584-8-8-8s-8,3.584-8,8v176C184,380.416,187.584,384,192,384z"/>
			<path d="M272,384c4.416,0,8-3.584,8-8V200c0-4.416-3.584-8-8-8c-4.416,0-8,3.584-8,8v176C264,380.416,267.584,384,272,384z"/>
		</g>
	</g>
</g>
<g>
</g>
<g>
</g>
<g>
</g>
<g>
</g>
<g>
</g>
<g>
</g>
<g>
</g>
<g>
</g>
<g>
</g>
<g>
</g>
<g>
</g>
<g>
</g>
<g>
</g>
<g>
</g>
<g>
</g>
</svg>
